<?xml version="1.0" encoding="utf-8"?>
<!-- Generator: Adobe Illustrator 24.2.1, SVG Export Plug-In . SVG Version: 6.00 Build 0)  -->
<svg version="1.1" id="Capa_1" xmlns="http://www.w3.org/2000/svg" xmlns:xlink="http://www.w3.org/1999/xlink" x="0px" y="0px"
	 viewBox="0 0 120 120" style="enable-background:new 0 0 120 120;" xml:space="preserve">
<style type="text/css">
	.st0{fill:none;}
	.st1{fill:#2088E2;}
</style>
<line class="st0" x1="-59.7" y1="508.7" x2="-59.7" y2="-388.3"/>
<line class="st0" x1="-59.7" y1="508.7" x2="-59.7" y2="-388.3"/>
<line class="st0" x1="-59.7" y1="-388.3" x2="-59.7" y2="508.7"/>
<path class="st1" d="M96.1,65.6c0-8.7-7.1-15.8-15.8-15.8h-6.6v-8.1c0-2,1-3.7,1.9-4.8c2.9-3.6,4.4-7.9,4.4-12.5
	c0-6.1-2.8-11.8-7.5-15.7C67.7,5,61.5,3.6,55.3,5C48,6.6,42.2,12.4,40.5,19.8c-1.4,6.1,0,12.4,3.9,17.2c0.9,1.1,1.9,2.7,1.9,4.7v8.1
	h-6.6c-8.7,0-15.8,7.1-15.8,15.8v5.2h14.9c-4.9,4.2-7.7,10.1-7.7,17.3c0,15.6,12.4,27.4,28.9,27.4s28.9-11.8,28.9-27.4
	c0-7.2-2.8-13.2-7.7-17.3h14.9V65.6z M49.3,33c-2.7-3.3-3.6-7.5-2.7-11.8c1.1-4.9,5.2-9,10.1-10.1c4.2-1,8.5,0,11.8,2.6
	c3.3,2.6,5.2,6.5,5.2,10.7c0,3.1-1,6-3,8.5c-2.2,2.7-3.3,5.7-3.3,8.8v8.1H52.6v-8.1C52.6,38.7,51.5,35.6,49.3,33z M82.5,88.2
	c0,12-9.7,21.1-22.5,21.1c-12.9,0-22.5-9.1-22.5-21.1c0-12.6,10.1-16.3,17.2-17.3h11C81.2,73.1,82.5,84.4,82.5,88.2z"/>
</svg>
