<?xml version="1.0" encoding="utf-8"?>
<svg version="1.1" id="Capa_1" x="0px" y="0px" viewBox="0 0 120 120" style="enable-background:new 0 0 120 120;" xmlns="http://www.w3.org/2000/svg">
  <style type="text/css">
	.st0{fill:none;}
	.st1{fill:#2088E2;}
</style>
  <line class="st0" x1="-59.7" y1="508.7" x2="-59.7" y2="-388.3"/>
  <line class="st0" x1="-59.7" y1="508.7" x2="-59.7" y2="-388.3"/>
  <line class="st0" x1="-59.7" y1="-388.3" x2="-59.7" y2="508.7"/>
  <g>
    <path class="st1" d="M102.9,44.4c-2.1,0-4,0.5-5.7,1.4c-0.3-0.1-0.7-0.2-1.1-0.2H14c-1.5,0-2.7,1.2-2.7,2.7s1.2,2.7,2.7,2.7h2.2 L19,66.7c-8.2,3.7-14,12-14,21.7c0,13.1,10.7,23.8,23.8,23.8c9.2,0,17.1-5.2,21.1-12.8h21.6c9.9,0,18.3-7.1,20.1-16.8l3.1-17.2 c2.2,2,5,3.2,8.2,3.2c6.7,0,12.1-5.4,12.1-12.1C114.9,49.8,109.5,44.4,102.9,44.4z M28.8,106.6c-10.1,0-18.3-8.2-18.3-18.3 c0-10.1,8.2-18.3,18.3-18.3s18.3,8.2,18.3,18.3C47.1,98.4,38.9,106.6,28.8,106.6z M71.5,93.8H52c0.4-1.8,0.6-3.6,0.6-5.5 c0-13.1-10.7-23.8-23.8-23.8c-1.6,0-3.1,0.2-4.5,0.4l-2.5-13.9h69.9l-0.3,1.7c-0.3,0.9-0.5,1.9-0.5,3l-4.7,25.8 C84.9,88.7,78.7,93.8,71.5,93.8z M102.9,63.1c-3.6,0-6.6-3-6.6-6.6c0,0,0,0,0,0l0.4-2.2c0.9-2.5,3.3-4.3,6.2-4.3 c3.6,0,6.6,3,6.6,6.6C109.5,60.1,106.5,63.1,102.9,63.1z" style="fill: rgb(134, 136, 137);"/>
    <path class="st1" d="M30.8,77.3c-1.6,0-2.8,1.2-2.8,2.7c0,1.5,1.3,2.7,2.8,2.7c1.6,0,2.8-1.2,2.8-2.7 C33.6,78.6,32.4,77.3,30.8,77.3z" style="fill: rgb(134, 136, 137);"/>
    <path class="st1" d="M38.7,90.1c-1.6,0-2.8,1.2-2.8,2.7c0,1.5,1.3,2.7,2.8,2.7c1.6,0,2.8-1.2,2.8-2.7 C41.6,91.4,40.3,90.1,38.7,90.1z" style="fill: rgb(134, 136, 137);"/>
    <path class="st1" d="M18.6,84.7c-1.6,0-2.8,1.2-2.8,2.7s1.3,2.7,2.8,2.7c1.6,0,2.8-1.2,2.8-2.7S20.2,84.7,18.6,84.7z" style="fill: rgb(134, 136, 137);"/>
    <path class="st1" d="M37.5,41.1c0.1,0,0.1,0,0.2,0c0.7-0.1,1.3-0.8,1.2-1.5c-0.1-0.7-0.2-4.2,4.3-4.7H70c0.1,0,0.2,0,0.3,0 c1.6-0.3,4.6-2,4.6-6.2c0-4.1-3.3-5.5-5.5-5.5H46.9c-0.5-0.4-1.8-1.3-1.8-2.8c0-2.2,1.6-3.5,2.1-3.5h11.1c0.1,0,0.1,0,0.2,0 c2.1-0.3,6-2.3,6-7.6c0-0.8-0.6-1.4-1.4-1.4s-1.4,0.6-1.4,1.4c0,4-3,4.7-3.6,4.9h-11c-2.2,0-4.8,2.8-4.8,6.2c0,3.6,3.4,5.3,3.5,5.4 c0.2,0.1,0.4,0.1,0.6,0.1h22.8c0.5,0,2.8,0.1,2.8,2.8c0,2.6-1.8,3.3-2.3,3.5H43.1c-0.1,0-0.1,0-0.2,0c-2.3,0.3-4.1,1.2-5.3,2.7 c-1.8,2.2-1.4,5-1.4,5.1C36.2,40.6,36.8,41.1,37.5,41.1z" style="fill: rgb(134, 136, 137);"/>
  </g>
</svg>