<?xml version="1.0" encoding="utf-8"?>
<!-- Generator: Adobe Illustrator 24.2.1, SVG Export Plug-In . SVG Version: 6.00 Build 0)  -->
<svg version="1.1" id="Capa_1" xmlns="http://www.w3.org/2000/svg" xmlns:xlink="http://www.w3.org/1999/xlink" x="0px" y="0px"
	 viewBox="0 0 120 120" style="enable-background:new 0 0 120 120;" xml:space="preserve">
<style type="text/css">
	.st0{fill:none;}
	.st1{fill:#2088E2;}
</style>
<line class="st0" x1="-59.7" y1="508.7" x2="-59.7" y2="-388.3"/>
<line class="st0" x1="-59.7" y1="508.7" x2="-59.7" y2="-388.3"/>
<line class="st0" x1="-59.7" y1="-388.3" x2="-59.7" y2="508.7"/>
<g>
	<path class="st1" d="M109.1,17.7H9.9c-3.9,0-7.2,3.2-7.2,7.2v57.3c0,3.9,3.2,7.2,7.2,7.2h43.1v7.1H31.6c-1.5,0-2.7,1.2-2.7,2.7v0.4
		c0,1.5,1.2,2.7,2.7,2.7h56.8c1.5,0,2.7-1.2,2.7-2.7v-0.4c0-1.5-1.2-2.7-2.7-2.7H67.1v-7.1h43.1c3.9,0,7.2-3.2,7.2-7.2V25.9
		C117.3,21.4,113.6,17.7,109.1,17.7z M112,82.2c0,1-0.8,1.8-1.8,1.8H9.9c-1,0-1.8-0.8-1.8-1.8V24.9c0-1,0.8-1.8,1.8-1.8h99.3
		c1.6,0,2.8,1.3,2.8,2.8V82.2z"/>
	<path class="st1" d="M98.7,29.3H21.3c-2.9,0-5.3,2.4-5.3,5.2v38.1c0,2.9,2.4,5.2,5.3,5.2h77.4c2.9,0,5.2-2.4,5.2-5.2V34.5
		C104,31.6,101.6,29.3,98.7,29.3z M101.3,72.6c0,1.4-1.2,2.6-2.6,2.6H21.3c-1.4,0-2.6-1.2-2.6-2.6V34.5c0-1.4,1.2-2.6,2.6-2.6h77.4
		c1.4,0,2.6,1.2,2.6,2.6V72.6z"/>
</g>
</svg>
