<?xml version="1.0" encoding="utf-8"?>
<!-- Generator: Adobe Illustrator 24.2.1, SVG Export Plug-In . SVG Version: 6.00 Build 0)  -->
<svg version="1.1" id="Capa_1" xmlns="http://www.w3.org/2000/svg" xmlns:xlink="http://www.w3.org/1999/xlink" x="0px" y="0px"
	 viewBox="0 0 120 120" style="enable-background:new 0 0 120 120;" xml:space="preserve">
<style type="text/css">
	.st0{fill:none;}
	.st1{fill:#2088E2;}
</style>
<line class="st0" x1="-59.7" y1="508.7" x2="-59.7" y2="-388.3"/>
<line class="st0" x1="-59.7" y1="508.7" x2="-59.7" y2="-388.3"/>
<line class="st0" x1="-59.7" y1="-388.3" x2="-59.7" y2="508.7"/>
<g>
	<path class="st1" d="M60,48c-20.9,0-37.9,9.9-37.9,30.8c0,20.9,16.9,35.7,37.9,35.7c20.9,0,37.9-14.8,37.9-35.7
		C97.8,57.9,80.9,48,60,48z M60,109c-18.5,0-32.4-13-32.4-30.2c0-8.1,3-14.5,8.9-18.8c5.7-4.2,13.8-6.5,23.5-6.5
		c9.7,0,17.8,2.2,23.5,6.5c5.9,4.4,8.9,10.7,8.9,18.8C92.3,96,78.4,109,60,109z"/>
	<path class="st1" d="M100.2,31.1c-6.1,0-11,6.5-11,14.5c0,8,4.9,14.5,11,14.5c6.1,0,11-6.5,11-14.5
		C111.2,37.6,106.3,31.1,100.2,31.1z M100.2,54.5c-2.6,0-5.5-3.7-5.5-9c0-5.3,2.9-9,5.5-9c2.6,0,5.5,3.7,5.5,9
		C105.7,50.8,102.8,54.5,100.2,54.5z"/>
	<path class="st1" d="M30.8,45.5c0-8-4.9-14.5-11-14.5c-6.1,0-11,6.5-11,14.5c0,8,4.9,14.5,11,14.5C25.9,60,30.8,53.5,30.8,45.5z
		 M19.8,54.5c-2.6,0-5.5-3.7-5.5-9c0-5.3,2.9-9,5.5-9c2.6,0,5.5,3.7,5.5,9C25.3,50.8,22.4,54.5,19.8,54.5z"/>
	<path class="st1" d="M75,44.1c6.7,0,12.2-8.6,12.2-19.3c0-10.6-5.4-19.3-12.2-19.3c-6.7,0-12.2,8.6-12.2,19.3
		C62.8,35.4,68.2,44.1,75,44.1z M75,11c2.7,0,6.7,5.4,6.7,13.8c0,8.4-4,13.8-6.7,13.8c-2.7,0-6.7-5.4-6.7-13.8
		C68.3,16.4,72.2,11,75,11z"/>
	<path class="st1" d="M44.4,44.1c6.7,0,12.2-8.6,12.2-19.3c0-10.6-5.4-19.3-12.2-19.3c-6.7,0-12.2,8.6-12.2,19.3
		C32.2,35.4,37.7,44.1,44.4,44.1z M44.4,11c2.7,0,6.7,5.4,6.7,13.8c0,8.4-4,13.8-6.7,13.8c-2.7,0-6.7-5.4-6.7-13.8
		C37.7,16.4,41.7,11,44.4,11z"/>
</g>
</svg>
