<?xml version="1.0" encoding="utf-8"?>
<svg version="1.1" id="Capa_1" x="0px" y="0px" viewBox="0 0 120 120" style="enable-background:new 0 0 120 120;" xmlns="http://www.w3.org/2000/svg">
  <style type="text/css">
	.st0{fill:none;}
	.st1{fill:#2088E2;}
</style>
  <line class="st0" x1="-59.7" y1="508.7" x2="-59.7" y2="-388.3"/>
  <line class="st0" x1="-59.7" y1="508.7" x2="-59.7" y2="-388.3"/>
  <line class="st0" x1="-59.7" y1="-388.3" x2="-59.7" y2="508.7"/>
  <g>
    <path class="st1" d="M97.3,55.2c-1-9-3.7-19.8-7.8-31.9c-2.5-7.3-5-13.3-6.2-16.2c-1.2-2.8-3.9-4.6-6.9-4.6H53.4 c-4.2,0-7.5,3.4-7.5,7.5v26.2H27.2c-1.7,0-3.2,0.7-4.3,1.9c-1.1,1.2-1.6,2.9-1.5,4.5L26.9,95c0.1,1.2,0.4,2.3,0.8,3.4l0.1,0.2 c0.2,0.6,0.3,1.2,0.3,1.8v8.7c0,4.6,3.7,8.3,8.3,8.3h16.5c3.4,0,6.3-2,7.6-5h29.4c3.9,0,7.1-2.9,7.5-6.8 C98.2,97.8,99.8,77.2,97.3,55.2z M53.4,8h22.9c0.8,0,1.6,0.5,1.9,1.2c1.1,2.6,3.1,7.5,5.3,13.6H51.3V10.1C51.3,9,52.2,8,53.4,8z M26.9,42.2c0-0.1,0-0.2,0.1-0.3c0.1-0.1,0.2-0.1,0.3-0.1H62c0.1,0,0.2,0,0.3,0.1c0.1,0.1,0.1,0.2,0.1,0.3l-5.5,52.5 c-0.1,0.6-0.2,1.1-0.4,1.7l-0.2,0.5H33c0-0.1,0-0.1-0.1-0.2l-0.1-0.2c-0.3-0.6-0.4-1.3-0.5-2L26.9,42.2z M55.7,109.2 c0,1.5-1.3,2.8-2.8,2.8H36.4c-1.5,0-2.8-1.3-2.8-2.8v-8.7c0-0.3,0-0.6,0-0.9h22.2c0,0.2,0,0.5,0,0.7V109.2z M92,105.1 c-0.1,1.1-1,1.9-2.1,1.9H61.2v-6.7c0-0.5,0.1-1.1,0.3-1.6l0.2-0.6c0.3-0.9,0.5-1.9,0.6-2.9l5.5-52.5c0.2-1.6-0.4-3.3-1.5-4.5 c-1.1-1.2-2.7-1.9-4.3-1.9H51.3V25.7h33.1c3.9,11.5,6.4,21.6,7.4,30.2C94.2,77.3,92.7,97.5,92,105.1z" style="fill: rgb(134, 136, 137);"/>
    <path class="st1" d="M44.6,77.6c5.2,0,9.4-4.2,9.4-9.4s-4.2-9.4-9.4-9.4c-5.2,0-9.4,4.2-9.4,9.4S39.4,77.6,44.6,77.6z" style="fill: rgb(134, 136, 137);"/>
  </g>
</svg>