<?xml version="1.0" encoding="utf-8"?>
<!-- Generator: Adobe Illustrator 24.2.1, SVG Export Plug-In . SVG Version: 6.00 Build 0)  -->
<svg version="1.1" id="Capa_1" xmlns="http://www.w3.org/2000/svg" xmlns:xlink="http://www.w3.org/1999/xlink" x="0px" y="0px"
	 viewBox="0 0 120 120" style="enable-background:new 0 0 120 120;" xml:space="preserve">
<style type="text/css">
	.st0{fill:none;}
	.st1{fill:#2088E2;}
</style>
<line class="st0" x1="-59.7" y1="508.7" x2="-59.7" y2="-388.3"/>
<line class="st0" x1="-59.7" y1="508.7" x2="-59.7" y2="-388.3"/>
<line class="st0" x1="-59.7" y1="-388.3" x2="-59.7" y2="508.7"/>
<g>
	<path class="st1" d="M92.3,2.7H27.7c-4.2,0-7.7,3.4-7.7,7.7v99.3c0,4.2,3.4,7.7,7.7,7.7h64.7c4.2,0,7.7-3.4,7.7-7.7V10.3
		C100,6.1,96.6,2.7,92.3,2.7z M65.8,29.1c0-0.1,0.1-0.1,0.1-0.2c0.1-0.1,0.1-0.2,0.2-0.4c0-0.1,0.1-0.1,0.1-0.2
		c0.1-0.1,0.1-0.3,0.2-0.4c0-0.1,0.1-0.1,0.1-0.2c0.1-0.2,0.1-0.3,0.2-0.5c0-0.1,0-0.1,0.1-0.1c0.1-0.2,0.1-0.4,0.2-0.6
		c0.7,0.2,1.3,0.6,1.8,1.1c0.1,0.1,0.2,0.1,0.3,0.2l9.9,9.9L74.5,42l-1.6-1.6c-0.4-0.4-1-0.5-1.5-0.3c-0.5,0.2-0.9,0.7-0.9,1.3v18.1
		c0,0.1-0.1,0.2-0.2,0.2H49.6c-0.1,0-0.2-0.1-0.2-0.2v-18c0-0.6-0.3-1.1-0.9-1.3C48.4,40.1,48.2,40,48,40c-0.4,0-0.7,0.1-1,0.4
		L45.5,42l-4.3-4.3l9.6-9.6c0.6-0.7,1.4-1.2,2.2-1.5c0,0.2,0.1,0.4,0.2,0.6c0,0.1,0,0.1,0.1,0.2c0,0.1,0.1,0.3,0.2,0.4
		c0,0.1,0.1,0.2,0.1,0.2c0.1,0.1,0.1,0.2,0.2,0.4c0,0.1,0.1,0.2,0.1,0.2c0.1,0.1,0.1,0.2,0.2,0.3c0,0.1,0.1,0.1,0.1,0.2
		c0.1,0.1,0.2,0.2,0.2,0.3c0,0.1,0.1,0.1,0.1,0.2c0.1,0.1,0.2,0.2,0.3,0.3c0,0,0.1,0.1,0.1,0.1c0.3,0.3,0.6,0.6,1,0.8
		c0,0,0.1,0.1,0.1,0.1c0.1,0.1,0.3,0.2,0.4,0.2c0.1,0,0.1,0.1,0.2,0.1c0.1,0.1,0.3,0.1,0.4,0.2c0.1,0,0.1,0.1,0.2,0.1
		c0.1,0.1,0.3,0.1,0.4,0.1c0.1,0,0.2,0.1,0.2,0.1c0.1,0,0.3,0.1,0.4,0.1c0.1,0,0.2,0,0.2,0.1c0.2,0,0.3,0.1,0.5,0.1
		c0.1,0,0.1,0,0.2,0c0.2,0,0.5,0,0.7,0c0.2,0,0.5,0,0.7,0c0.1,0,0.1,0,0.2,0c0.2,0,0.3,0,0.5-0.1c0.1,0,0.2,0,0.2-0.1
		c0.1,0,0.3-0.1,0.4-0.1c0.1,0,0.2,0,0.2-0.1c0.1,0,0.3-0.1,0.4-0.1c0.1,0,0.2-0.1,0.2-0.1c0.1-0.1,0.3-0.1,0.4-0.2
		c0.1,0,0.1-0.1,0.2-0.1c0.1-0.1,0.3-0.2,0.4-0.2c0.1,0,0.1-0.1,0.2-0.1c0.4-0.2,0.7-0.5,1-0.8c0,0,0.1-0.1,0.1-0.1
		c0.1-0.1,0.2-0.2,0.3-0.3c0-0.1,0.1-0.1,0.1-0.2C65.6,29.3,65.7,29.2,65.8,29.1z M64,26.5c0,0.1-0.1,0.2-0.1,0.2
		c-0.1,0.2-0.2,0.5-0.4,0.7c0,0-0.1,0.1-0.1,0.1c-0.1,0.2-0.3,0.3-0.4,0.5c-0.1,0.1-0.1,0.1-0.2,0.2c-0.1,0.1-0.2,0.2-0.4,0.3
		c-0.1,0.1-0.2,0.1-0.2,0.2c-0.1,0.1-0.3,0.2-0.4,0.2c-0.1,0-0.2,0.1-0.3,0.1c-0.2,0.1-0.3,0.1-0.5,0.2c-0.1,0-0.2,0-0.3,0.1
		c-0.3,0-0.5,0.1-0.8,0.1c0,0,0,0,0,0c0,0,0,0,0,0c-0.3,0-0.5,0-0.8-0.1c-0.1,0-0.2,0-0.3-0.1c-0.2,0-0.3-0.1-0.5-0.2
		c-0.1,0-0.2-0.1-0.3-0.1c-0.1-0.1-0.3-0.1-0.4-0.2c-0.1-0.1-0.2-0.1-0.2-0.2c-0.1-0.1-0.3-0.2-0.4-0.3C57,28.1,57,28.1,56.9,28
		c-0.2-0.2-0.3-0.4-0.5-0.6c0,0,0-0.1-0.1-0.1c-0.1-0.2-0.2-0.4-0.3-0.6c0-0.1-0.1-0.2-0.1-0.3c0-0.1-0.1-0.2-0.1-0.3h8.2
		C64,26.3,64,26.4,64,26.5z M54.9,23.4c-0.2,0-0.5,0-0.7,0c0,0,0,0,0,0c-2.1,0.2-4.1,1.2-5.5,2.7L38.2,36.6c-0.6,0.6-0.6,1.4,0,2
		l6.3,6.3c0.3,0.3,0.6,0.4,1,0.4s0.7-0.1,1-0.4l0.1-0.1v14.6c0,1.6,1.3,3,3,3h20.8c1.7,0,3-1.3,3-3V44.8l0.2,0.2
		c0.3,0.3,0.6,0.4,1,0.4s0.7-0.1,1-0.4l6.3-6.3c0.5-0.6,0.5-1.4,0-2L70.7,25.5c-0.1-0.1-0.2-0.2-0.4-0.3c-1.3-1.1-2.9-1.7-4.6-1.9
		c0,0,0,0,0,0c-0.2,0-0.5,0-0.7,0h-3.7c0-0.1,0-0.1,0-0.2v-6.8h33v53.9H25.6V16.4h33v6.8c0,0.1,0,0.1,0,0.2H54.9z M94.4,73.1v17.5
		H25.6V73.1H94.4z M27.7,8.3h64.7c1.1,0,2,0.9,2,2v3.2H25.6v-3.2C25.6,9.2,26.5,8.3,27.7,8.3z M92.3,111.7H27.7c-1.1,0-2-0.9-2-2
		V93.4h68.7v16.3C94.4,110.8,93.5,111.7,92.3,111.7z"/>
	<path class="st1" d="M52.6,83.3h14.9c0.8,0,1.4-0.6,1.4-1.4s-0.6-1.4-1.4-1.4H52.6c-0.8,0-1.4,0.6-1.4,1.4S51.8,83.3,52.6,83.3z"/>
	<path class="st1" d="M67.4,101.3H52.6c-0.8,0-1.4,0.6-1.4,1.4s0.6,1.4,1.4,1.4h14.9c0.8,0,1.4-0.6,1.4-1.4S68.2,101.3,67.4,101.3z"
		/>
</g>
</svg>
